name rise37.2698peak67.6939fall79.5734.mot
datacolumns 19
datarows 15
range 7.48164100000000 7.50497100000000
endheader
time	ground_force1_vx	ground_force1_vy	ground_force1_vz	ground_force1_px	ground_force1_py	ground_force1_pz	ground_force2_vx	ground_force2_vy	ground_force2_vz	ground_force2_px	ground_force2_py	ground_force2_pz	ground_torque1_x	ground_torque1_y	ground_torque1_z	ground_torque2_x	ground_torque2_y	ground_torque2_z	
7.48164100000000	-37.73058900000000	770.20763499999998	54.17673400000000	0.10972700000000	0.00000000000000	0.09928000000000	-6.71720000000000	39.30410700000000	2.24860600000000	0.32122000000000	0.00000000000000	-0.09126300000000	0.00000000000000	18.77425000000000	0.00000000000000	0.00000000000000	0.17076600000000	0.00000000000000	
7.48331500000000	-37.86874200000000	767.23662800000000	53.86238200000000	0.10914800000000	0.00000000000000	0.09916700000000	-7.33223400000000	46.00042700000000	2.50287500000000	0.32637200000000	0.00000000000000	-0.09140200000000	0.00000000000000	18.63239500000000	0.00000000000000	0.00000000000000	0.23941500000000	0.00000000000000	
7.48497100000000	-38.02309700000000	764.18556999999998	53.53054200000000	0.10857300000000	0.00000000000000	0.09904900000000	-7.81087600000000	52.76576500000000	2.72339100000000	0.33103200000000	0.00000000000000	-0.09153300000000	0.00000000000000	18.49163400000000	0.00000000000000	0.00000000000000	0.31558600000000	0.00000000000000	
7.48664100000000	-38.19428500000000	761.05527300000006	53.18130200000000	0.10800400000000	0.00000000000000	0.09892800000000	-8.13475700000000	59.51258900000000	2.90359500000000	0.33526700000000	0.00000000000000	-0.09165800000000	0.00000000000000	18.35217500000000	0.00000000000000	0.00000000000000	0.39783500000000	0.00000000000000	
7.48830700000000	-38.38287400000000	757.84646599999996	52.81477500000000	0.10743900000000	0.00000000000000	0.09880300000000	-8.29322300000000	66.17548400000000	3.03907200000000	0.33913200000000	0.00000000000000	-0.09177800000000	0.00000000000000	18.21421500000000	0.00000000000000	0.00000000000000	0.48458200000000	0.00000000000000	
7.48997400000000	-38.58937000000000	754.55978800000003	52.43110500000000	0.10687800000000	0.00000000000000	0.09867400000000	-8.28317500000000	72.71311300000001	3.12756900000000	0.34267300000000	0.00000000000000	-0.09189600000000	0.00000000000000	18.07793800000000	0.00000000000000	0.00000000000000	0.57420200000000	0.00000000000000	
7.49164100000000	-38.81421200000000	751.19578300000001	52.03046300000000	0.10632200000000	0.00000000000000	0.09854200000000	-8.10833000000000	79.10786200000000	3.16882700000000	0.34592500000000	0.00000000000000	-0.09201100000000	0.00000000000000	17.94351800000000	0.00000000000000	0.00000000000000	0.66510000000000	0.00000000000000	
7.49330400000000	-39.05776300000000	747.75489100000004	51.61304800000000	0.10576900000000	0.00000000000000	0.09840500000000	-7.77804300000000	85.36359800000000	3.16428100000000	0.34892100000000	0.00000000000000	-0.09212400000000	0.00000000000000	17.81111100000000	0.00000000000000	0.00000000000000	0.75577700000000	0.00000000000000	
7.49497300000000	-39.32031400000000	744.23744599999998	51.17908400000000	0.10522000000000	0.00000000000000	0.09826500000000	-7.30587400000000	91.50202899999999	3.11667900000000	0.35168700000000	0.00000000000000	-0.09223700000000	0.00000000000000	17.68086200000000	0.00000000000000	0.00000000000000	0.84486800000000	0.00000000000000	
7.49664300000000	-39.60207600000000	740.64367300000004	50.72882400000000	0.10467400000000	0.00000000000000	0.09812200000000	-6.70804800000000	97.55823700000001	3.02965200000000	0.35424500000000	0.00000000000000	-0.09234900000000	0.00000000000000	17.55290000000000	0.00000000000000	0.00000000000000	0.93116700000000	0.00000000000000	
7.49830200000000	-39.90317700000000	736.97367999999994	50.26254800000000	0.10413100000000	0.00000000000000	0.09797500000000	-6.00197500000000	103.57586999999999	2.90728700000000	0.35661500000000	0.00000000000000	-0.09246100000000	0.00000000000000	17.42733800000000	0.00000000000000	0.00000000000000	1.01364100000000	0.00000000000000	
7.49997500000000	-40.22366200000000	733.22745399999997	49.78055800000000	0.10358900000000	0.00000000000000	0.09782400000000	-5.20492100000000	109.60247200000001	2.75374500000000	0.35881300000000	0.00000000000000	-0.09257400000000	0.00000000000000	17.30427700000000	0.00000000000000	0.00000000000000	1.09142000000000	0.00000000000000	
7.50164200000000	-40.56348600000000	729.40486699999997	49.28318400000000	0.10305000000000	0.00000000000000	0.09767000000000	-4.33291500000000	115.68527500000000	2.57293400000000	0.36085300000000	0.00000000000000	-0.09268700000000	0.00000000000000	17.18379700000000	0.00000000000000	0.00000000000000	1.16378500000000	0.00000000000000	
7.50330800000000	-40.92251600000000	725.50566500000002	48.77077800000000	0.10251200000000	0.00000000000000	0.09751300000000	-3.39994300000000	121.86771500000000	2.36825400000000	0.36274900000000	0.00000000000000	-0.09280100000000	0.00000000000000	17.06596400000000	0.00000000000000	0.00000000000000	1.23014100000000	0.00000000000000	
7.50497100000000	-41.30052500000000	721.52947200000006	48.24371600000000	0.10197500000000	0.00000000000000	0.09735300000000	-2.41743600000000	128.18681599999999	2.14243700000000	0.36451000000000	0.00000000000000	-0.09291500000000	0.00000000000000	16.95082900000000	0.00000000000000	0.00000000000000	1.28999500000000	0.00000000000000	
